<svg width="1005" height="719" viewBox="0 0 1005 719" fill="none" xmlns="http://www.w3.org/2000/svg">
<path fill-rule="evenodd" clip-rule="evenodd" d="M653 624.71C648.41 624.24 643.887 623.747 639.431 623.232L638.514 631.18C643.268 631.729 648.096 632.253 653 632.751V624.71ZM59.5132 33.3813L57 39.1873V32.3117C57.8404 32.6633 58.6781 33.0198 59.5132 33.3813ZM74.0103 49.3387C69.4043 46.8359 64.711 44.492 59.9283 42.3174L63.2395 35.0348C68.1989 37.2898 73.0617 39.7184 77.8299 42.3095L74.0103 49.3387ZM90.8999 59.4646C86.5028 56.5755 82.0209 53.8331 77.4522 51.2477L81.3923 44.2852C86.1196 46.9604 90.7525 49.7954 95.2929 52.7787L90.8999 59.4646ZM106.943 70.9266C102.769 67.6993 98.5139 64.6051 94.1747 61.654L98.6736 55.0389C103.152 58.0845 107.539 61.2746 111.837 64.5978L106.943 70.9266ZM122.124 83.5514C118.177 80.0329 114.152 76.6331 110.046 73.3619L115.031 67.1049C119.256 70.4714 123.395 73.9666 127.448 77.5796L122.124 83.5514ZM136.46 97.1784C132.735 93.4122 128.936 89.7502 125.059 86.2023L130.46 80.3009C134.439 83.942 138.334 87.6963 142.148 91.5531L136.46 97.1784ZM149.979 111.659C146.469 107.684 142.887 103.8 139.232 100.015L144.986 94.4572C148.727 98.3311 152.39 102.303 155.976 106.364L149.979 111.659ZM162.724 126.862C159.416 122.711 156.039 118.637 152.592 114.65L158.644 109.418C162.164 113.489 165.609 117.645 168.98 121.876L162.724 126.862ZM174.735 142.662C171.616 138.365 168.431 134.131 165.179 129.971L171.481 125.044C174.795 129.282 178.037 133.592 181.209 137.963L174.735 142.662ZM186.075 158.98C183.131 154.56 180.125 150.192 177.053 145.885L183.567 141.24C186.69 145.62 189.745 150.058 192.733 154.545L186.075 158.98ZM196.795 175.736C194.014 171.214 191.172 166.732 188.267 162.298L194.958 157.914C197.907 162.414 200.79 166.96 203.609 171.544L196.795 175.736ZM206.944 192.861C204.312 188.254 201.621 183.675 198.869 179.132L205.711 174.987C208.5 179.59 211.226 184.228 213.891 188.892L206.944 192.861ZM216.569 210.297C214.074 205.62 211.52 200.958 208.908 196.322L215.878 192.395C218.522 197.087 221.104 201.802 223.627 206.531L216.569 210.297ZM225.718 228.002C223.347 223.267 220.921 218.536 218.436 213.819L225.515 210.091C228.026 214.859 230.477 219.639 232.871 224.42L225.718 228.002ZM234.44 245.95C232.182 241.166 229.869 236.374 227.5 231.583L234.671 228.036C237.063 232.873 239.397 237.71 241.675 242.535L234.44 245.95ZM242.77 264.092C240.614 259.269 238.404 254.424 236.138 249.567L243.387 246.184C245.673 251.082 247.901 255.967 250.073 260.827L242.77 264.092ZM250.744 282.388C248.68 277.536 246.563 272.647 244.388 267.733L251.705 264.496C253.895 269.448 256.028 274.372 258.106 279.257L250.744 282.388ZM258.399 300.797C256.417 295.927 254.382 291.004 252.289 286.039L259.661 282.932C261.768 287.93 263.816 292.884 265.809 297.781L258.399 300.797ZM265.823 319.402C263.909 314.518 261.941 309.558 259.914 304.537L267.333 301.543C269.371 306.592 271.349 311.577 273.272 316.485L265.823 319.402ZM273.016 338.06C271.161 333.181 269.25 328.199 267.279 323.132L274.734 320.232C276.714 325.321 278.633 330.322 280.494 335.218L273.016 338.06ZM280.053 356.775C278.235 351.898 276.357 346.884 274.415 341.75L281.898 338.92C283.845 344.069 285.728 349.095 287.549 353.98L280.053 356.775ZM284.525 368.8C283.525 366.108 282.506 363.364 281.464 360.563L288.962 357.773C290.005 360.576 291.03 363.339 292.036 366.047C292.885 368.334 293.72 370.583 294.539 372.783L287.04 375.572C286.215 373.352 285.378 371.099 284.528 368.81L284.525 368.8ZM294.109 394.391C292.288 389.621 290.394 384.575 288.424 379.288L295.92 376.494C297.888 381.772 299.772 386.796 301.582 391.538L294.109 394.391ZM301.527 413.14C299.615 408.544 297.618 403.508 295.528 398.09L302.992 395.211C305.067 400.589 307.037 405.556 308.913 410.067L301.527 413.14ZM306.378 424.197C305.297 421.89 304.191 419.408 303.058 416.766L310.41 413.613C311.516 416.192 312.586 418.591 313.622 420.803L314.493 422.662L314.498 422.673C315.329 424.447 316.163 426.227 317.002 428.015L309.762 431.416C309.377 430.597 308.993 429.779 308.61 428.963C308.153 427.988 307.698 427.016 307.244 426.047L306.378 424.197ZM318.428 449.474C316.023 444.616 313.713 439.792 311.462 435.026L318.695 431.609C320.936 436.351 323.222 441.127 325.598 445.925L318.428 449.474ZM327.7 467.314C325.079 462.54 322.596 457.78 320.215 453.052L327.36 449.453C329.707 454.113 332.145 458.788 334.712 463.463L327.7 467.314ZM337.915 484.714C334.999 480.085 332.256 475.45 329.651 470.823L336.622 466.898C339.17 471.423 341.846 475.945 344.684 480.451L337.915 484.714ZM349.298 501.441C346.038 497.015 342.976 492.565 340.082 488.105L346.793 483.75C349.607 488.087 352.58 492.407 355.74 496.697L349.298 501.441ZM361.94 517.248C358.324 513.086 354.923 508.887 351.709 504.662L358.076 499.818C361.189 503.911 364.482 507.976 367.979 512.001L361.94 517.248ZM375.844 531.964C371.89 528.115 368.156 524.217 364.621 520.283L370.572 514.936C373.991 518.741 377.601 522.509 381.424 526.232L375.844 531.964ZM390.937 545.488C386.677 541.974 382.637 538.406 378.798 534.792L384.281 528.967C387.994 532.462 391.903 535.914 396.028 539.317L390.937 545.488ZM407.057 557.752C402.519 554.568 398.196 551.326 394.073 548.034L399.065 541.782C403.059 544.971 407.249 548.114 411.653 551.204L407.057 557.752ZM423.998 568.747C419.264 565.906 414.733 563.007 410.394 560.057L414.892 553.441C419.105 556.305 423.508 559.123 428.115 561.888L423.998 568.747ZM441.636 578.56C436.723 576.027 432.004 573.438 427.467 570.797L431.491 563.883C435.909 566.454 440.509 568.978 445.302 571.45L441.636 578.56ZM459.886 587.302C454.843 585.059 449.979 582.762 445.287 580.415L448.867 573.26C453.448 575.552 458.202 577.797 463.136 579.992L459.886 587.302ZM478.453 594.989C473.313 593.009 468.341 590.978 463.528 588.899L466.702 581.555C471.413 583.591 476.286 585.582 481.328 587.524L478.453 594.989ZM497.352 601.775C492.138 600.032 487.081 598.24 482.173 596.402L484.978 588.91C489.795 590.714 494.763 592.474 499.889 594.188L497.352 601.775ZM516.521 607.755C511.255 606.224 506.134 604.648 501.152 603.028L503.626 595.42C508.526 597.013 513.567 598.565 518.754 600.073L516.521 607.755ZM535.894 613.009C530.589 611.669 525.418 610.285 520.377 608.86L522.553 601.162C527.521 602.566 532.62 603.93 537.854 605.253L535.894 613.009ZM555.426 617.612C550.088 616.441 544.876 615.229 539.785 613.978L541.693 606.209C546.718 607.444 551.866 608.641 557.14 609.798L555.426 617.612ZM575.089 621.631C569.72 620.611 564.469 619.552 559.331 618.457L561 610.633C566.078 611.715 571.27 612.762 576.582 613.771L575.089 621.631ZM594.873 625.126C589.471 624.241 584.178 623.319 578.994 622.362L580.446 614.495C585.576 615.442 590.816 616.355 596.167 617.231L594.873 625.126ZM614.714 628.14C609.294 627.379 603.979 626.583 598.765 625.754L600.021 617.854C605.186 618.675 610.454 619.463 615.826 620.218L614.714 628.14ZM634.469 630.704C629.101 630.063 623.828 629.389 618.649 628.684L619.728 620.757C624.863 621.456 630.092 622.124 635.419 622.761L634.469 630.704Z" fill="url(#paint0_linear)"/>
<path fill-rule="evenodd" clip-rule="evenodd" d="M653 592.098C649.262 591.038 645.576 589.922 641.94 588.752L639.489 596.367C643.919 597.793 648.422 599.141 653 600.406V592.098ZM57.1939 612.439L57 611.339V604.347C59.2521 603.937 61.4745 603.496 63.6678 603.025L65.3495 610.846C62.6713 611.422 59.953 611.953 57.1939 612.439ZM328.544 357.639C326.119 357.416 323.677 357.365 321.21 357.494C318.682 357.627 316.24 357.963 313.872 358.488L312.142 350.677C314.943 350.056 317.824 349.662 320.79 349.506C323.645 349.355 326.473 349.415 329.276 349.672L328.544 357.639ZM346.364 362.326C341.634 360.298 336.918 358.874 332.176 358.101L333.462 350.206C338.92 351.095 344.261 352.721 349.516 354.973L346.364 362.326ZM310.29 359.441C305.643 360.888 301.224 363.099 296.964 366.01L292.45 359.406C297.286 356.1 302.417 353.514 307.911 351.803L310.29 359.441ZM362.82 371.651C358.428 368.596 354.081 365.991 349.749 363.877L353.256 356.687C358.018 359.01 362.72 361.836 367.389 365.084L362.82 371.651ZM293.888 368.254C290.052 371.23 286.339 374.779 282.701 378.847L276.738 373.515C280.632 369.16 284.695 365.261 288.984 361.933L293.888 368.254ZM377.924 383.679C373.875 380.084 369.875 376.801 365.905 373.866L370.662 367.433C374.856 370.535 379.041 373.973 383.235 377.695L377.924 383.679ZM280.184 381.758C276.974 385.592 273.83 389.81 270.713 394.365L264.11 389.848C267.34 385.127 270.641 380.694 274.051 376.622L280.184 381.758ZM391.976 397.103C388.191 393.261 384.461 389.633 380.77 386.247L386.178 380.352C389.987 383.846 393.814 387.571 397.674 391.488L391.976 397.103ZM268.52 397.632C265.699 401.912 262.902 406.449 260.1 411.205L253.207 407.143C256.06 402.302 258.929 397.647 261.84 393.23L268.52 397.632ZM405.482 411.381C401.848 407.412 398.275 403.592 394.748 399.944L400.499 394.383C404.088 398.095 407.713 401.97 411.382 405.979L405.482 411.381ZM418.621 426.018C415.057 421.991 411.557 418.066 408.109 414.265L414.035 408.891C417.512 412.724 421.035 416.675 424.612 420.716L418.621 426.018ZM258.103 414.627C255.497 419.138 252.885 423.82 250.242 428.645L243.226 424.801C245.886 419.944 248.53 415.205 251.176 410.625L258.103 414.627ZM428.5 437.231L428.473 437.2C426.037 434.43 423.634 431.696 421.257 429.001L427.256 423.708C429.629 426.398 432.03 429.13 434.458 431.892L434.505 431.945L434.509 431.95C435.573 433.161 436.643 434.377 437.717 435.598L431.71 440.882C430.633 439.658 429.563 438.441 428.5 437.231ZM241.484 444.837L240.676 446.341L233.63 442.553L234.439 441.047L234.44 441.046C236.751 436.747 239.032 432.502 241.292 428.345L248.321 432.166C246.071 436.303 243.801 440.528 241.489 444.827L241.487 444.832L241.484 444.837ZM444.806 455.684C441.237 451.686 437.738 447.728 434.305 443.83L440.308 438.542C443.736 442.433 447.221 446.376 450.774 450.356L444.806 455.684ZM238.753 449.916C236.238 454.587 233.672 459.332 231.04 464.118L224.03 460.264C226.645 455.508 229.198 450.787 231.709 446.123L238.753 449.916ZM458.113 470.374C454.483 466.434 450.928 462.514 447.442 458.629L453.397 453.286C456.864 457.15 460.395 461.044 463.996 464.953L458.113 470.374ZM229.088 467.653C226.494 472.33 223.833 477.044 221.088 481.766L214.171 477.747C216.883 473.08 219.518 468.415 222.092 463.773L229.088 467.653ZM471.735 484.841C468.019 480.988 464.382 477.136 460.818 473.298L466.68 467.854C470.214 471.659 473.816 475.475 477.493 479.288L471.735 484.841ZM219.034 485.276C216.305 489.905 213.492 494.537 210.581 499.15L203.816 494.88C206.678 490.345 209.449 485.782 212.143 481.213L219.034 485.276ZM485.752 498.974C481.927 495.232 478.186 491.475 474.521 487.715L480.25 482.131C483.875 485.85 487.571 489.562 491.347 493.256L485.752 498.974ZM500.201 512.644C496.246 509.033 492.378 505.393 488.591 501.735L494.149 495.981C497.886 499.591 501.7 503.179 505.595 506.736L500.201 512.644ZM208.395 502.58C205.471 507.123 202.447 511.641 199.309 516.112L192.761 511.515C195.832 507.141 198.796 502.713 201.668 498.251L208.395 502.58ZM515.164 525.781C511.068 522.329 507.062 518.834 503.141 515.308L508.49 509.36C512.351 512.832 516.292 516.27 520.319 519.663L515.164 525.781ZM196.947 519.437C193.783 523.836 190.503 528.183 187.093 532.456L180.84 527.466C184.16 523.306 187.359 519.066 190.451 514.766L196.947 519.437ZM530.685 538.291C526.439 535.024 522.285 531.701 518.219 528.333L523.322 522.172C527.318 525.481 531.397 528.745 535.564 531.951L530.685 538.291ZM184.521 535.634C181.072 539.835 177.492 543.958 173.765 547.98L167.897 542.542C171.508 538.646 174.984 534.644 178.338 530.558L184.521 535.634ZM546.789 550.078C542.386 547.019 538.078 543.893 533.861 540.711L538.68 534.325C542.816 537.446 547.039 540.51 551.353 543.507L546.789 550.078ZM170.957 550.962C167.196 554.891 163.289 558.716 159.222 562.416L153.838 556.498C157.762 552.929 161.537 549.234 165.178 545.43L170.957 550.962ZM563.481 561.044C558.921 558.218 554.458 555.315 550.088 552.345L554.585 545.728C558.865 548.637 563.234 551.479 567.695 554.244L563.481 561.044ZM580.75 571.102C576.037 568.53 571.423 565.873 566.903 563.14L571.043 556.294C575.464 558.968 579.976 561.566 584.582 564.079L580.75 571.102ZM156.159 565.151C152.066 568.739 147.815 572.198 143.393 575.509L138.598 569.105C142.849 565.923 146.941 562.593 150.885 559.135L156.159 565.151ZM598.568 580.172C593.711 577.874 588.953 575.483 584.292 573.008L588.043 565.943C592.599 568.361 597.246 570.696 601.989 572.941L598.568 580.172ZM140.073 577.944C135.664 581.109 131.089 584.126 126.335 586.977L122.221 580.116C126.78 577.381 131.172 574.485 135.408 571.445L140.073 577.944ZM616.888 588.189C611.901 586.18 607.013 584.073 602.221 581.874L605.557 574.603C610.236 576.75 615.008 578.808 619.877 580.769L616.888 588.189ZM122.791 589.052C118.089 591.739 113.218 594.263 108.166 596.607L104.799 589.351C109.642 587.103 114.313 584.682 118.821 582.106L122.791 589.052ZM635.649 595.105C630.549 593.396 625.548 591.584 620.642 589.675L623.542 582.219C628.331 584.082 633.213 585.851 638.191 587.52L635.649 595.105ZM104.384 598.314C99.4371 600.483 94.3224 602.481 89.0303 604.292L86.4395 596.724C91.5204 594.984 96.4277 593.067 101.171 590.988L104.384 598.314ZM85.1746 605.569C80.0594 607.206 74.7828 608.67 69.337 609.949L67.5076 602.161C72.75 600.93 77.8235 599.521 82.7367 597.949L85.1746 605.569Z" fill="url(#paint1_linear)"/>
<path fill-rule="evenodd" clip-rule="evenodd" d="M653 69.1087C652.39 69.3137 651.781 69.5191 651.174 69.7248L653 75.1167V69.1087ZM63.9916 648.258C61.6819 648.49 59.3514 648.701 57 648.893V640.866C59.0823 640.692 61.1471 640.503 63.1945 640.298L63.9916 648.258ZM650.037 78.5665C645.015 80.2957 640.085 82.0514 635.243 83.8349L632.478 76.3281C637.374 74.5243 642.358 72.7495 647.433 71.0023L650.037 78.5665ZM631.551 85.2071C626.573 87.073 621.69 88.9693 616.899 90.8975L613.912 83.476C618.765 81.5232 623.707 79.6037 628.743 77.7161L631.551 85.2071ZM613.26 92.3756C608.353 94.3865 603.544 96.432 598.828 98.5137L595.597 91.195C600.38 89.0836 605.255 87.0103 610.226 84.9732L613.26 92.3756ZM595.256 100.105C590.417 102.282 585.677 104.498 581.032 106.756L577.535 99.5605C582.253 97.2674 587.065 95.0178 591.974 92.8095L595.256 100.105ZM577.511 108.484C572.776 110.831 568.14 113.223 563.599 115.662L559.814 108.614C564.434 106.133 569.147 103.701 573.958 101.316L577.511 108.484ZM560.151 117.532C555.518 120.071 550.984 122.66 546.546 125.302L542.454 118.428C546.976 115.736 551.592 113.1 556.306 110.517L560.151 117.532ZM543.2 127.314C538.698 130.049 534.294 132.841 529.983 135.691L525.571 129.017C529.969 126.11 534.459 123.265 539.046 120.477L543.2 127.314ZM526.723 137.868C522.371 140.807 518.113 143.807 513.943 146.872L509.205 140.426C513.461 137.297 517.807 134.235 522.247 131.238L526.723 137.868ZM510.804 149.204C506.613 152.351 502.512 155.565 498.495 158.85L493.431 152.657C497.534 149.302 501.722 146.02 506 142.807L510.804 149.204ZM495.485 161.337C491.474 164.687 487.546 168.11 483.695 171.608L478.316 165.687C482.248 162.114 486.26 158.618 490.357 155.197L495.485 161.337ZM480.816 174.252C476.994 177.797 473.249 181.419 469.573 185.121L463.896 179.484C467.648 175.705 471.472 172.007 475.375 168.387L480.816 174.252ZM466.834 187.908C463.207 191.635 459.647 195.443 456.149 199.335L450.199 193.987C453.767 190.018 457.398 186.133 461.1 182.328L466.834 187.908ZM453.547 202.257C450.115 206.15 446.741 210.125 443.42 214.186L437.227 209.121C440.609 204.986 444.047 200.935 447.546 196.966L453.547 202.257ZM440.951 217.233C437.706 221.274 434.51 225.4 431.358 229.612L424.953 224.82C428.158 220.536 431.409 216.339 434.713 212.224L440.951 217.233ZM429.027 232.755C425.956 236.93 422.925 241.19 419.93 245.537L413.342 240.999C416.382 236.586 419.461 232.259 422.583 228.015L429.027 232.755ZM417.72 248.77C414.816 253.053 411.944 257.42 409.1 261.872L402.358 257.565C405.24 253.054 408.152 248.626 411.1 244.28L417.72 248.77ZM406.992 265.196C404.232 269.579 401.497 274.044 398.783 278.594L391.913 274.496C394.658 269.893 397.426 265.373 400.222 260.933L406.992 265.196ZM396.79 281.957C394.163 286.419 391.554 290.962 388.959 295.587L381.982 291.673C384.603 287.002 387.239 282.411 389.896 277.898L396.79 281.957ZM387.034 299.039C384.523 303.568 382.025 308.174 379.535 312.861L372.47 309.108C374.981 304.381 377.502 299.732 380.038 295.16L387.034 299.039ZM377.706 316.323C376.487 318.64 375.27 320.977 374.055 323.333C372.845 325.68 371.644 328.042 370.451 330.421L363.301 326.834C364.506 324.431 365.72 322.041 366.945 319.667C368.17 317.292 369.396 314.936 370.625 312.599L377.706 316.323ZM368.668 334C366.322 338.737 364.006 343.531 361.709 348.375L354.48 344.946C356.794 340.069 359.13 335.233 361.499 330.45L368.668 334ZM360.008 351.975C357.754 356.77 355.517 361.609 353.287 366.484L346.012 363.156C348.25 358.262 350.5 353.397 352.769 348.571L360.008 351.975ZM351.625 370.126C349.423 374.963 347.227 379.831 345.028 384.723L337.731 381.443C339.933 376.546 342.135 371.665 344.344 366.812L351.625 370.126ZM341.404 392.794L341.396 392.811C339.874 396.202 338.348 399.602 336.816 403.005L329.521 399.722C331.051 396.323 332.574 392.929 334.095 389.54C334.76 388.059 335.424 386.58 336.088 385.101L343.386 388.378C342.726 389.848 342.065 391.32 341.404 392.794ZM335.169 406.661C332.974 411.528 330.762 416.405 328.527 421.281L321.254 417.947C323.481 413.09 325.686 408.229 327.877 403.371L335.169 406.661ZM326.848 424.933C324.607 429.793 322.341 434.651 320.04 439.499L312.813 436.068C315.099 431.252 317.352 426.422 319.583 421.584L326.848 424.933ZM318.309 443.128C315.992 447.965 313.639 452.79 311.241 457.593L304.084 454.019C306.46 449.26 308.794 444.475 311.094 439.673L318.309 443.128ZM309.434 461.191C307.01 465.988 304.54 470.761 302.014 475.502L294.954 471.74C297.45 467.055 299.894 462.334 302.293 457.584L309.434 461.191ZM300.107 479.054C297.546 483.79 294.927 488.491 292.242 493.15L285.311 489.154C287.957 484.564 290.541 479.926 293.07 475.248L300.107 479.054ZM290.211 496.642C287.483 501.294 284.685 505.9 281.809 510.451L275.046 506.178C277.872 501.706 280.624 497.176 283.311 492.595L290.211 496.642ZM279.635 513.858C276.71 518.397 273.704 522.878 270.609 527.293L264.058 522.701C267.09 518.376 270.038 513.981 272.911 509.525L279.635 513.858ZM268.266 530.599C265.117 534.992 261.876 539.316 258.534 543.562L252.247 538.613C255.512 534.466 258.681 530.238 261.764 525.938L268.266 530.599ZM256.006 546.734C252.611 550.942 249.112 555.07 245.501 559.108L239.538 553.775C243.054 549.843 246.466 545.818 249.78 541.71L256.006 546.734ZM242.773 562.119C239.115 566.1 235.345 569.989 231.451 573.777L225.872 568.044C229.654 564.364 233.321 560.582 236.881 556.707L242.773 562.119ZM228.52 576.588C224.594 580.298 220.546 583.905 216.367 587.401L211.234 581.265C215.286 577.876 219.213 574.376 223.025 570.774L228.52 576.588ZM213.22 589.992C209.029 593.389 204.707 596.675 200.249 599.841L195.617 593.319C199.934 590.252 204.121 587.069 208.183 583.777L213.22 589.992ZM196.914 602.169C192.479 605.213 187.91 608.139 183.2 610.94L179.111 604.064C183.67 601.352 188.094 598.519 192.388 595.572L196.914 602.169ZM179.692 612.987C175.036 615.655 170.244 618.201 165.311 620.619L161.79 613.436C166.568 611.094 171.207 608.628 175.715 606.046L179.692 612.987ZM161.625 622.389C156.782 624.668 151.804 626.824 146.686 628.851L143.74 621.413C148.703 619.447 153.528 617.358 158.22 615.15L161.625 622.389ZM142.869 630.329C137.873 632.219 132.746 633.989 127.482 635.63L125.1 627.993C130.214 626.398 135.191 624.681 140.038 622.847L142.869 630.329ZM123.643 636.798C118.534 638.313 113.299 639.709 107.933 640.982L106.086 633.198C111.311 631.959 116.403 630.6 121.369 629.128L123.643 636.798ZM104.006 641.887C98.8173 643.046 93.5081 644.091 88.0742 645.018L86.7285 637.132C92.0314 636.227 97.2076 635.208 102.262 634.079L104.006 641.887ZM84.0857 645.674C78.8451 646.503 73.4902 647.224 68.0174 647.833L67.1329 639.882C72.4859 639.287 77.7187 638.582 82.8353 637.772L84.0857 645.674Z" fill="url(#paint2_linear)"/>
<line x1="35.5" y1="1.5299e-07" x2="35.5" y2="673" stroke="#4B4B4B" stroke-width="7"/>
<line x1="34" y1="669.5" x2="734" y2="669.5" stroke="#4B4B4B" stroke-width="7"/>
<path d="M15.6602 401.301L22 401.301L22 404.266L4.9375 404.266L4.9375 397.738C4.9375 395.832 5.43359 394.32 6.42578 393.203C7.41797 392.078 8.73047 391.516 10.3633 391.516C12.0352 391.516 13.3359 392.066 14.2656 393.168C15.1953 394.262 15.6602 395.797 15.6602 397.773L15.6602 401.301ZM13.2813 401.301L13.2813 397.738C13.2813 396.684 13.0352 395.879 12.543 395.324C12.043 394.77 11.3242 394.492 10.3867 394.492C9.46484 394.492 8.73047 394.773 8.18359 395.336C7.62891 395.898 7.34375 396.672 7.32813 397.656L7.32813 401.301L13.2813 401.301ZM15.543 389.887C14.3008 389.887 13.1836 389.641 12.1914 389.148C11.1914 388.656 10.4258 387.965 9.89453 387.074C9.35547 386.184 9.08594 385.16 9.08594 384.004C9.08594 382.293 9.63672 380.906 10.7383 379.844C11.8398 378.773 13.3008 378.195 15.1211 378.109L15.7891 378.098C17.0391 378.098 18.1563 378.34 19.1406 378.824C20.125 379.301 20.8867 379.988 21.4258 380.887C21.9648 381.777 22.2344 382.809 22.2344 383.98C22.2344 385.77 21.6406 387.203 20.4531 388.281C19.2578 389.352 17.668 389.887 15.6836 389.887L15.543 389.887ZM15.7891 387.039C17.0938 387.039 18.1172 386.77 18.8594 386.23C19.5938 385.691 19.9609 384.941 19.9609 383.98C19.9609 383.02 19.5859 382.273 18.8359 381.742C18.0859 381.203 16.9883 380.934 15.543 380.934C14.2617 380.934 13.2461 381.211 12.4961 381.766C11.7461 382.313 11.3711 383.059 11.3711 384.004C11.3711 384.934 11.7422 385.672 12.4844 386.219C13.2188 386.766 14.3203 387.039 15.7891 387.039ZM15.7891 364.586C17.75 364.586 19.3164 365.031 20.4883 365.922C21.6523 366.813 22.2344 368.008 22.2344 369.508C22.2344 370.898 21.7773 372.012 20.8633 372.848L26.875 372.848L26.875 375.695L9.32031 375.695L9.32031 373.07L10.6094 372.953C9.59375 372.117 9.08594 370.98 9.08594 369.543C9.08594 367.996 9.66406 366.785 10.8203 365.91C11.9688 365.027 13.5664 364.586 15.6133 364.586L15.7891 364.586ZM15.543 367.422C14.2773 367.422 13.2734 367.676 12.5313 368.184C11.7891 368.684 11.418 369.402 11.418 370.34C11.418 371.504 11.8984 372.34 12.8594 372.848L18.4844 372.848C19.4688 372.332 19.9609 371.488 19.9609 370.316C19.9609 369.41 19.5977 368.703 18.8711 368.195C18.1367 367.68 17.0273 367.422 15.543 367.422ZM20.7578 354.484C21.7422 355.32 22.2344 356.508 22.2344 358.047C22.2344 359.422 21.832 360.465 21.0273 361.176C20.2227 361.879 19.0586 362.23 17.5352 362.23L9.32031 362.23L9.32031 359.383L17.5 359.383C19.1094 359.383 19.9141 358.715 19.9141 357.379C19.9141 355.996 19.418 355.063 18.4258 354.578L9.32031 354.578L9.32031 351.73L22 351.73L22 354.414L20.7578 354.484ZM22 345.801L22 348.648L4 348.648L4 345.801L22 345.801ZM22 335.113C21.7578 335.238 21.3633 335.348 20.8164 335.441C21.7617 336.348 22.2344 337.457 22.2344 338.77C22.2344 340.043 21.8711 341.082 21.1445 341.887C20.418 342.691 19.5195 343.094 18.4492 343.094C17.0977 343.094 16.0625 342.594 15.3438 341.594C14.6172 340.586 14.2539 339.148 14.2539 337.281L14.2539 335.535L13.4219 335.535C12.7656 335.535 12.2422 335.719 11.8516 336.086C11.4531 336.453 11.2539 337.012 11.2539 337.762C11.2539 338.41 11.418 338.941 11.7461 339.355C12.0664 339.77 12.4766 339.977 12.9766 339.977L12.9766 342.824C12.2813 342.824 11.6328 342.594 11.0313 342.133C10.4219 341.672 9.94531 341.047 9.60156 340.258C9.25781 339.461 9.08594 338.574 9.08594 337.598C9.08594 336.113 9.46094 334.93 10.2109 334.047C10.9531 333.164 12 332.711 13.3516 332.688L19.0703 332.688C20.2109 332.688 21.1211 332.527 21.8008 332.207L22 332.207L22 335.113ZM19.9492 338.242C19.9492 337.68 19.8125 337.152 19.5391 336.66C19.2656 336.16 18.8984 335.785 18.4375 335.535L16.0469 335.535L16.0469 337.07C16.0469 338.125 16.2305 338.918 16.5977 339.449C16.9648 339.98 17.4844 340.246 18.1563 340.246C18.7031 340.246 19.1406 340.066 19.4688 339.707C19.7891 339.34 19.9492 338.852 19.9492 338.242ZM19.9609 324.496C19.9609 323.785 19.7539 323.195 19.3398 322.727C18.9258 322.258 18.4141 322.008 17.8047 321.977L17.8047 319.293C18.5938 319.324 19.332 319.57 20.0195 320.031C20.6992 320.492 21.2383 321.117 21.6367 321.906C22.0352 322.695 22.2344 323.547 22.2344 324.461C22.2344 326.234 21.6602 327.641 20.5117 328.68C19.3633 329.719 17.7773 330.238 15.7539 330.238L15.4609 330.238C13.5313 330.238 11.9883 329.723 10.832 328.691C9.66797 327.66 9.08594 326.254 9.08594 324.473C9.08594 322.965 9.52734 321.738 10.4102 320.793C11.2852 319.84 12.4375 319.34 13.8672 319.293L13.8672 321.977C13.1406 322.008 12.543 322.258 12.0742 322.727C11.6055 323.188 11.3711 323.777 11.3711 324.496C11.3711 325.418 11.707 326.129 12.3789 326.629C13.043 327.129 14.0547 327.383 15.4141 327.391L15.8711 327.391C17.2461 327.391 18.2734 327.145 18.9531 326.652C19.625 326.152 19.9609 325.434 19.9609 324.496ZM22.0234 323.723L22.6563 323.852C22.8672 322.68 23.543 322.094 24.6836 322.094C25.5039 322.094 26.1445 322.43 26.6055 323.102C27.0664 323.773 27.2969 324.715 27.2969 325.926L25.6914 326.008C25.6914 325.492 25.5977 325.098 25.4102 324.824C25.2305 324.543 24.9766 324.402 24.6484 324.402C24.2969 324.402 24.0508 324.543 23.9102 324.824C23.7773 325.098 23.6914 325.547 23.6523 326.172L22.0234 325.797L22.0234 323.723ZM22 309.566C21.7578 309.691 21.3633 309.801 20.8164 309.895C21.7617 310.801 22.2344 311.91 22.2344 313.223C22.2344 314.496 21.8711 315.535 21.1445 316.34C20.418 317.145 19.5195 317.547 18.4492 317.547C17.0977 317.547 16.0625 317.047 15.3438 316.047C14.6172 315.039 14.2539 313.602 14.2539 311.734L14.2539 309.988L13.4219 309.988C12.7656 309.988 12.2422 310.172 11.8516 310.539C11.4531 310.906 11.2539 311.465 11.2539 312.215C11.2539 312.863 11.418 313.395 11.7461 313.809C12.0664 314.223 12.4766 314.43 12.9766 314.43L12.9766 317.277C12.2813 317.277 11.6328 317.047 11.0313 316.586C10.4219 316.125 9.94531 315.5 9.60156 314.711C9.25781 313.914 9.08594 313.027 9.08594 312.051C9.08594 310.566 9.46094 309.383 10.2109 308.5C10.9531 307.617 12 307.164 13.3516 307.141L19.0703 307.141C20.2109 307.141 21.1211 306.98 21.8008 306.66L22 306.66L22 309.566ZM19.9492 312.695C19.9492 312.133 19.8125 311.605 19.5391 311.113C19.2656 310.613 18.8984 310.238 18.4375 309.988L16.0469 309.988L16.0469 311.523C16.0469 312.578 16.2305 313.371 16.5977 313.902C16.9648 314.434 17.4844 314.699 18.1563 314.699C18.7031 314.699 19.1406 314.52 19.4688 314.16C19.7891 313.793 19.9492 313.305 19.9492 312.695ZM4.25781 307.656C5.11719 307.656 5.83203 307.906 6.40234 308.406C6.97266 308.898 7.25781 309.52 7.25781 310.27C7.25781 310.574 7.22656 310.84 7.16406 311.066C7.09375 311.285 6.94141 311.602 6.70703 312.016C6.47266 312.422 6.33203 312.711 6.28516 312.883C6.23828 313.047 6.21484 313.23 6.21484 313.434C6.21484 313.73 6.32813 313.984 6.55469 314.195C6.77344 314.398 7.0625 314.5 7.42188 314.5L7.32813 316.246C6.46875 316.246 5.74609 316 5.16016 315.508C4.57422 315.008 4.28125 314.387 4.28125 313.645C4.28125 313.199 4.45703 312.664 4.80859 312.039C5.16016 311.406 5.33594 310.887 5.33594 310.48C5.33594 310.184 5.22656 309.93 5.00781 309.719C4.78125 309.508 4.48438 309.402 4.11719 309.402L4.25781 307.656ZM15.543 304.691C14.3008 304.691 13.1836 304.445 12.1914 303.953C11.1914 303.461 10.4258 302.77 9.89453 301.879C9.35547 300.988 9.08594 299.965 9.08594 298.809C9.08594 297.098 9.63672 295.711 10.7383 294.648C11.8398 293.578 13.3008 293 15.1211 292.914L15.7891 292.902C17.0391 292.902 18.1563 293.145 19.1406 293.629C20.125 294.105 20.8867 294.793 21.4258 295.691C21.9648 296.582 22.2344 297.613 22.2344 298.785C22.2344 300.574 21.6406 302.008 20.4531 303.086C19.2578 304.156 17.668 304.691 15.6836 304.691L15.543 304.691ZM15.7891 301.844C17.0938 301.844 18.1172 301.574 18.8594 301.035C19.5938 300.496 19.9609 299.746 19.9609 298.785C19.9609 297.824 19.5859 297.078 18.8359 296.547C18.0859 296.008 16.9883 295.738 15.543 295.738C14.2617 295.738 13.2461 296.016 12.4961 296.57C11.7461 297.117 11.3711 297.863 11.3711 298.809C11.3711 299.738 11.7422 300.477 12.4844 301.023C13.2188 301.57 14.3203 301.844 15.7891 301.844Z" fill="#4B4B4B"/>
<path d="M331.062 683.328H325.742V698H322.801V683.328H317.527V680.938H331.062V683.328ZM337.566 698.234C335.762 698.234 334.297 697.668 333.172 696.535C332.055 695.395 331.496 693.879 331.496 691.988V691.637C331.496 690.371 331.738 689.242 332.223 688.25C332.715 687.25 333.402 686.473 334.285 685.918C335.168 685.363 336.152 685.086 337.238 685.086C338.965 685.086 340.297 685.637 341.234 686.738C342.18 687.84 342.652 689.398 342.652 691.414V692.562H334.367C334.453 693.609 334.801 694.438 335.41 695.047C336.027 695.656 336.801 695.961 337.73 695.961C339.035 695.961 340.098 695.434 340.918 694.379L342.453 695.844C341.945 696.602 341.266 697.191 340.414 697.613C339.57 698.027 338.621 698.234 337.566 698.234ZM337.227 687.371C336.445 687.371 335.812 687.645 335.328 688.191C334.852 688.738 334.547 689.5 334.414 690.477H339.84V690.266C339.777 689.312 339.523 688.594 339.078 688.109C338.633 687.617 338.016 687.371 337.227 687.371ZM347.551 685.32L347.633 686.645C348.523 685.605 349.742 685.086 351.289 685.086C352.984 685.086 354.145 685.734 354.77 687.031C355.691 685.734 356.988 685.086 358.66 685.086C360.059 685.086 361.098 685.473 361.777 686.246C362.465 687.02 362.816 688.16 362.832 689.668V698H359.984V689.75C359.984 688.945 359.809 688.355 359.457 687.98C359.105 687.605 358.523 687.418 357.711 687.418C357.062 687.418 356.531 687.594 356.117 687.945C355.711 688.289 355.426 688.742 355.262 689.305L355.273 698H352.426V689.656C352.387 688.164 351.625 687.418 350.141 687.418C349 687.418 348.191 687.883 347.715 688.812V698H344.867V685.32H347.551ZM376.859 691.789C376.859 693.75 376.414 695.316 375.523 696.488C374.633 697.652 373.438 698.234 371.938 698.234C370.547 698.234 369.434 697.777 368.598 696.863V702.875H365.75V685.32H368.375L368.492 686.609C369.328 685.594 370.465 685.086 371.902 685.086C373.449 685.086 374.66 685.664 375.535 686.82C376.418 687.969 376.859 689.566 376.859 691.613V691.789ZM374.023 691.543C374.023 690.277 373.77 689.273 373.262 688.531C372.762 687.789 372.043 687.418 371.105 687.418C369.941 687.418 369.105 687.898 368.598 688.859V694.484C369.113 695.469 369.957 695.961 371.129 695.961C372.035 695.961 372.742 695.598 373.25 694.871C373.766 694.137 374.023 693.027 374.023 691.543ZM378.746 691.543C378.746 690.301 378.992 689.184 379.484 688.191C379.977 687.191 380.668 686.426 381.559 685.895C382.449 685.355 383.473 685.086 384.629 685.086C386.34 685.086 387.727 685.637 388.789 686.738C389.859 687.84 390.438 689.301 390.523 691.121L390.535 691.789C390.535 693.039 390.293 694.156 389.809 695.141C389.332 696.125 388.645 696.887 387.746 697.426C386.855 697.965 385.824 698.234 384.652 698.234C382.863 698.234 381.43 697.641 380.352 696.453C379.281 695.258 378.746 693.668 378.746 691.684V691.543ZM381.594 691.789C381.594 693.094 381.863 694.117 382.402 694.859C382.941 695.594 383.691 695.961 384.652 695.961C385.613 695.961 386.359 695.586 386.891 694.836C387.43 694.086 387.699 692.988 387.699 691.543C387.699 690.262 387.422 689.246 386.867 688.496C386.32 687.746 385.574 687.371 384.629 687.371C383.699 687.371 382.961 687.742 382.414 688.484C381.867 689.219 381.594 690.32 381.594 691.789Z" fill="#4B4B4B"/>
<path d="M171.741 704H169.614V693.726L166.477 694.798V692.996L171.469 691.159H171.741V704ZM183.413 699.438H185.004V701.152H183.413V704H181.277V701.152H175.749L175.688 699.852L181.207 691.203H183.413V699.438ZM177.929 699.438H181.277V694.095L181.119 694.376L177.929 699.438ZM190.638 699.175C190.638 697.71 190.978 696.535 191.657 695.65C192.337 694.76 193.248 694.314 194.391 694.314C195.398 694.314 196.213 694.666 196.834 695.369V690.5H198.97V704H197.036L196.931 703.016C196.292 703.789 195.439 704.176 194.373 704.176C193.26 704.176 192.357 703.728 191.666 702.831C190.98 701.935 190.638 700.716 190.638 699.175ZM192.773 699.359C192.773 700.326 192.958 701.082 193.327 701.627C193.702 702.166 194.232 702.436 194.918 702.436C195.791 702.436 196.43 702.046 196.834 701.267V697.206C196.441 696.444 195.809 696.063 194.936 696.063C194.244 696.063 193.711 696.339 193.336 696.89C192.961 697.435 192.773 698.258 192.773 699.359ZM203.47 704H201.334V694.49H203.47V704ZM201.202 692.021C201.202 691.692 201.305 691.42 201.51 691.203C201.721 690.986 202.02 690.878 202.406 690.878C202.793 690.878 203.092 690.986 203.303 691.203C203.514 691.42 203.619 691.692 203.619 692.021C203.619 692.343 203.514 692.612 203.303 692.829C203.092 693.04 202.793 693.146 202.406 693.146C202.02 693.146 201.721 693.04 201.51 692.829C201.305 692.612 201.202 692.343 201.202 692.021ZM211.485 704C211.392 703.818 211.31 703.522 211.239 703.112C210.56 703.821 209.728 704.176 208.743 704.176C207.788 704.176 207.009 703.903 206.405 703.358C205.802 702.813 205.5 702.14 205.5 701.337C205.5 700.323 205.875 699.547 206.625 699.008C207.381 698.463 208.459 698.19 209.859 698.19H211.169V697.566C211.169 697.074 211.031 696.682 210.756 696.389C210.48 696.09 210.062 695.94 209.499 695.94C209.013 695.94 208.614 696.063 208.304 696.31C207.993 696.55 207.838 696.857 207.838 697.232H205.702C205.702 696.711 205.875 696.225 206.221 695.773C206.566 695.316 207.035 694.959 207.627 694.701C208.225 694.443 208.89 694.314 209.622 694.314C210.735 694.314 211.623 694.596 212.285 695.158C212.947 695.715 213.287 696.5 213.305 697.514V701.803C213.305 702.658 213.425 703.341 213.665 703.851V704H211.485ZM209.139 702.462C209.561 702.462 209.956 702.359 210.325 702.154C210.7 701.949 210.981 701.674 211.169 701.328V699.535H210.018C209.227 699.535 208.632 699.673 208.233 699.948C207.835 700.224 207.636 700.613 207.636 701.117C207.636 701.527 207.771 701.855 208.04 702.102C208.315 702.342 208.682 702.462 209.139 702.462ZM220.872 701.416C220.872 701.035 220.714 700.745 220.397 700.546C220.087 700.347 219.568 700.171 218.842 700.019C218.115 699.866 217.509 699.673 217.022 699.438C215.956 698.923 215.423 698.176 215.423 697.197C215.423 696.377 215.769 695.691 216.46 695.141C217.151 694.59 218.03 694.314 219.097 694.314C220.233 694.314 221.15 694.596 221.848 695.158C222.551 695.721 222.902 696.45 222.902 697.347H220.767C220.767 696.937 220.614 696.597 220.31 696.327C220.005 696.052 219.601 695.914 219.097 695.914C218.628 695.914 218.244 696.022 217.945 696.239C217.652 696.456 217.506 696.746 217.506 697.109C217.506 697.438 217.644 697.692 217.919 697.874C218.194 698.056 218.751 698.24 219.589 698.428C220.427 698.609 221.083 698.829 221.558 699.087C222.038 699.339 222.393 699.644 222.621 700.001C222.855 700.358 222.973 700.792 222.973 701.302C222.973 702.157 222.618 702.852 221.909 703.385C221.2 703.912 220.271 704.176 219.123 704.176C218.344 704.176 217.649 704.035 217.04 703.754C216.431 703.473 215.956 703.086 215.616 702.594C215.276 702.102 215.106 701.571 215.106 701.003H217.181C217.21 701.507 217.4 701.896 217.752 702.172C218.104 702.441 218.569 702.576 219.149 702.576C219.712 702.576 220.14 702.471 220.433 702.26C220.726 702.043 220.872 701.762 220.872 701.416Z" fill="#4B4B4B"/>
<path d="M243.846 715H241.631V709.313H235.909V715H233.686V702.203H235.909V707.529H241.631V702.203H243.846V715ZM245.876 710.157C245.876 709.226 246.061 708.388 246.43 707.644C246.799 706.894 247.317 706.319 247.985 705.921C248.653 705.517 249.421 705.314 250.288 705.314C251.571 705.314 252.611 705.728 253.408 706.554C254.211 707.38 254.645 708.476 254.709 709.841L254.718 710.342C254.718 711.279 254.536 712.117 254.173 712.855C253.815 713.594 253.3 714.165 252.626 714.569C251.958 714.974 251.185 715.176 250.306 715.176C248.964 715.176 247.889 714.73 247.08 713.84C246.277 712.943 245.876 711.751 245.876 710.263V710.157ZM248.012 710.342C248.012 711.32 248.214 712.088 248.618 712.645C249.022 713.195 249.585 713.471 250.306 713.471C251.026 713.471 251.586 713.189 251.984 712.627C252.389 712.064 252.591 711.241 252.591 710.157C252.591 709.196 252.383 708.435 251.967 707.872C251.557 707.31 250.997 707.028 250.288 707.028C249.591 707.028 249.037 707.307 248.627 707.863C248.217 708.414 248.012 709.24 248.012 710.342ZM258.752 705.49V715.844C258.752 716.816 258.509 717.558 258.022 718.067C257.542 718.583 256.836 718.841 255.904 718.841C255.512 718.841 255.134 718.791 254.771 718.691V717.004C254.993 717.057 255.245 717.083 255.526 717.083C256.235 717.083 256.599 716.696 256.616 715.923V705.49H258.752ZM256.432 703.021C256.432 702.692 256.534 702.42 256.739 702.203C256.95 701.986 257.249 701.878 257.636 701.878C258.022 701.878 258.321 701.986 258.532 702.203C258.743 702.42 258.849 702.692 258.849 703.021C258.849 703.343 258.743 703.612 258.532 703.829C258.321 704.04 258.022 704.146 257.636 704.146C257.249 704.146 256.95 704.04 256.739 703.829C256.534 703.612 256.432 703.343 256.432 703.021ZM265.229 715.176C263.876 715.176 262.777 714.751 261.934 713.901C261.096 713.046 260.677 711.909 260.677 710.491V710.228C260.677 709.278 260.858 708.432 261.222 707.688C261.591 706.938 262.106 706.354 262.769 705.938C263.431 705.522 264.169 705.314 264.983 705.314C266.278 705.314 267.277 705.728 267.98 706.554C268.689 707.38 269.044 708.549 269.044 710.061V710.922H262.83C262.895 711.707 263.155 712.328 263.612 712.785C264.075 713.242 264.655 713.471 265.353 713.471C266.331 713.471 267.128 713.075 267.743 712.284L268.895 713.383C268.514 713.951 268.004 714.394 267.365 714.71C266.732 715.021 266.021 715.176 265.229 715.176ZM264.975 707.028C264.389 707.028 263.914 707.233 263.551 707.644C263.193 708.054 262.965 708.625 262.865 709.357H266.935V709.199C266.888 708.484 266.697 707.945 266.363 707.582C266.029 707.213 265.566 707.028 264.975 707.028Z" fill="#4B4B4B"/>
<line x1="250.5" y1="420" x2="250.5" y2="698" stroke="black" stroke-width="3" stroke-dasharray="8 8"/>
<line x1="142.5" y1="571" x2="142.5" y2="698" stroke="black" stroke-width="3" stroke-dasharray="8 8"/>
<line x1="149" y1="681" x2="241" y2="681" stroke="black" stroke-width="2"/>
<line x1="241.5" y1="675" x2="241.5" y2="687" stroke="black"/>
<line x1="149.5" y1="675" x2="149.5" y2="687" stroke="black"/>
<path fill-rule="evenodd" clip-rule="evenodd" d="M252 538.928C209.57 592.702 150.892 633.052 57 640.866V648.893C149.258 641.376 208.778 603.118 252 551.602V538.928Z" fill="#1DE119"/>
<path fill-rule="evenodd" clip-rule="evenodd" d="M251 410.935C245.49 420.484 239.98 430.734 234.296 441.309C229.401 450.413 224.378 459.758 219.113 469.104C185.972 527.943 142.33 588.826 57 604.347V611.339L57.1939 612.439C147.077 596.608 192.564 532.54 226.084 473.03C231.558 463.311 236.689 453.765 241.631 444.569L241.632 444.568C244.819 438.638 247.928 432.854 251 427.262V410.935Z" fill="#FC773E"/>
<path fill-rule="evenodd" clip-rule="evenodd" d="M250.701 282.288L258.06 279.149C250.309 260.93 241.788 242.169 232.387 223.454C192.802 144.653 137.226 65.8716 57 32.3117V41.0122C132.821 74.1374 186.368 149.667 225.238 227.046C234.554 245.59 243.004 264.195 250.701 282.288Z" fill="#3EB7FC"/>
<g filter="url(#filter0_d)">
<circle cx="142.5" cy="570.5" r="9.5" fill="#FC773E"/>
</g>
<g filter="url(#filter1_d)">
<circle cx="250.5" cy="419.5" r="9.5" fill="#FC773E"/>
</g>
<g filter="url(#filter2_d)">
<circle cx="250.5" cy="546.5" r="9.5" fill="#1DE119"/>
</g>
<g filter="url(#filter3_d)">
<circle cx="142.5" cy="624.5" r="9.5" fill="#1DE119"/>
</g>
<rect x="774" y="208" width="95" height="18" fill="#3EB7FC"/>
<rect x="774" y="238" width="95" height="18" fill="#FC773E"/>
<rect x="774" y="413" width="95" height="14" fill="#9E9D9D"/>
<rect x="774" y="268" width="95" height="18" fill="#1DE119"/>
<path d="M889.652 220.605C889.652 219.855 889.387 219.277 888.855 218.871C888.332 218.465 887.383 218.055 886.008 217.641C884.633 217.227 883.539 216.766 882.727 216.258C881.172 215.281 880.395 214.008 880.395 212.438C880.395 211.062 880.953 209.93 882.07 209.039C883.195 208.148 884.652 207.703 886.441 207.703C887.629 207.703 888.688 207.922 889.617 208.359C890.547 208.797 891.277 209.422 891.809 210.234C892.34 211.039 892.605 211.934 892.605 212.918H889.652C889.652 212.027 889.371 211.332 888.809 210.832C888.254 210.324 887.457 210.07 886.418 210.07C885.449 210.07 884.695 210.277 884.156 210.691C883.625 211.105 883.359 211.684 883.359 212.426C883.359 213.051 883.648 213.574 884.227 213.996C884.805 214.41 885.758 214.816 887.086 215.215C888.414 215.605 889.48 216.055 890.285 216.562C891.09 217.062 891.68 217.641 892.055 218.297C892.43 218.945 892.617 219.707 892.617 220.582C892.617 222.004 892.07 223.137 890.977 223.98C889.891 224.816 888.414 225.234 886.547 225.234C885.312 225.234 884.176 225.008 883.137 224.555C882.105 224.094 881.301 223.461 880.723 222.656C880.152 221.852 879.867 220.914 879.867 219.844H882.832C882.832 220.812 883.152 221.562 883.793 222.094C884.434 222.625 885.352 222.891 886.547 222.891C887.578 222.891 888.352 222.684 888.867 222.27C889.391 221.848 889.652 221.293 889.652 220.605ZM902.625 223.758C901.789 224.742 900.602 225.234 899.062 225.234C897.688 225.234 896.645 224.832 895.934 224.027C895.23 223.223 894.879 222.059 894.879 220.535V212.32H897.727V220.5C897.727 222.109 898.395 222.914 899.73 222.914C901.113 222.914 902.047 222.418 902.531 221.426V212.32H905.379V225H902.695L902.625 223.758ZM915.387 221.555C915.387 221.047 915.176 220.66 914.754 220.395C914.34 220.129 913.648 219.895 912.68 219.691C911.711 219.488 910.902 219.23 910.254 218.918C908.832 218.23 908.121 217.234 908.121 215.93C908.121 214.836 908.582 213.922 909.504 213.188C910.426 212.453 911.598 212.086 913.02 212.086C914.535 212.086 915.758 212.461 916.688 213.211C917.625 213.961 918.094 214.934 918.094 216.129H915.246C915.246 215.582 915.043 215.129 914.637 214.77C914.23 214.402 913.691 214.219 913.02 214.219C912.395 214.219 911.883 214.363 911.484 214.652C911.094 214.941 910.898 215.328 910.898 215.812C910.898 216.25 911.082 216.59 911.449 216.832C911.816 217.074 912.559 217.32 913.676 217.57C914.793 217.812 915.668 218.105 916.301 218.449C916.941 218.785 917.414 219.191 917.719 219.668C918.031 220.145 918.188 220.723 918.188 221.402C918.188 222.543 917.715 223.469 916.77 224.18C915.824 224.883 914.586 225.234 913.055 225.234C912.016 225.234 911.09 225.047 910.277 224.672C909.465 224.297 908.832 223.781 908.379 223.125C907.926 222.469 907.699 221.762 907.699 221.004H910.465C910.504 221.676 910.758 222.195 911.227 222.562C911.695 222.922 912.316 223.102 913.09 223.102C913.84 223.102 914.41 222.961 914.801 222.68C915.191 222.391 915.387 222.016 915.387 221.555ZM925.887 222.961C926.598 222.961 927.188 222.754 927.656 222.34C928.125 221.926 928.375 221.414 928.406 220.805H931.09C931.059 221.594 930.812 222.332 930.352 223.02C929.891 223.699 929.266 224.238 928.477 224.637C927.688 225.035 926.836 225.234 925.922 225.234C924.148 225.234 922.742 224.66 921.703 223.512C920.664 222.363 920.145 220.777 920.145 218.754V218.461C920.145 216.531 920.66 214.988 921.691 213.832C922.723 212.668 924.129 212.086 925.91 212.086C927.418 212.086 928.645 212.527 929.59 213.41C930.543 214.285 931.043 215.438 931.09 216.867H928.406C928.375 216.141 928.125 215.543 927.656 215.074C927.195 214.605 926.605 214.371 925.887 214.371C924.965 214.371 924.254 214.707 923.754 215.379C923.254 216.043 923 217.055 922.992 218.414V218.871C922.992 220.246 923.238 221.273 923.73 221.953C924.23 222.625 924.949 222.961 925.887 222.961ZM938.824 225.234C937.02 225.234 935.555 224.668 934.43 223.535C933.312 222.395 932.754 220.879 932.754 218.988V218.637C932.754 217.371 932.996 216.242 933.48 215.25C933.973 214.25 934.66 213.473 935.543 212.918C936.426 212.363 937.41 212.086 938.496 212.086C940.223 212.086 941.555 212.637 942.492 213.738C943.438 214.84 943.91 216.398 943.91 218.414V219.562H935.625C935.711 220.609 936.059 221.438 936.668 222.047C937.285 222.656 938.059 222.961 938.988 222.961C940.293 222.961 941.355 222.434 942.176 221.379L943.711 222.844C943.203 223.602 942.523 224.191 941.672 224.613C940.828 225.027 939.879 225.234 938.824 225.234ZM938.484 214.371C937.703 214.371 937.07 214.645 936.586 215.191C936.109 215.738 935.805 216.5 935.672 217.477H941.098V217.266C941.035 216.312 940.781 215.594 940.336 215.109C939.891 214.617 939.273 214.371 938.484 214.371ZM949.699 209.238V212.32H951.938V214.43H949.699V221.508C949.699 221.992 949.793 222.344 949.98 222.562C950.176 222.773 950.52 222.879 951.012 222.879C951.34 222.879 951.672 222.84 952.008 222.762V224.965C951.359 225.145 950.734 225.234 950.133 225.234C947.945 225.234 946.852 224.027 946.852 221.613V214.43H944.766V212.32H946.852V209.238H949.699ZM957.188 225H954.34V212.32H957.188V225ZM956.648 207.082H959.895L956.648 210.633H954.363L956.648 207.082ZM964.898 221.391L967.582 212.32H970.523L966.129 225H963.656L959.227 212.32H962.18L964.898 221.391ZM977.73 225.234C975.926 225.234 974.461 224.668 973.336 223.535C972.219 222.395 971.66 220.879 971.66 218.988V218.637C971.66 217.371 971.902 216.242 972.387 215.25C972.879 214.25 973.566 213.473 974.449 212.918C975.332 212.363 976.316 212.086 977.402 212.086C979.129 212.086 980.461 212.637 981.398 213.738C982.344 214.84 982.816 216.398 982.816 218.414V219.562H974.531C974.617 220.609 974.965 221.438 975.574 222.047C976.191 222.656 976.965 222.961 977.895 222.961C979.199 222.961 980.262 222.434 981.082 221.379L982.617 222.844C982.109 223.602 981.43 224.191 980.578 224.613C979.734 225.027 978.785 225.234 977.73 225.234ZM977.391 214.371C976.609 214.371 975.977 214.645 975.492 215.191C975.016 215.738 974.711 216.5 974.578 217.477H980.004V217.266C979.941 216.312 979.688 215.594 979.242 215.109C978.797 214.617 978.18 214.371 977.391 214.371ZM988.066 225H985.219V212.32H988.066V225ZM985.043 209.027C985.043 208.59 985.18 208.227 985.453 207.938C985.734 207.648 986.133 207.504 986.648 207.504C987.164 207.504 987.562 207.648 987.844 207.938C988.125 208.227 988.266 208.59 988.266 209.027C988.266 209.457 988.125 209.816 987.844 210.105C987.562 210.387 987.164 210.527 986.648 210.527C986.133 210.527 985.734 210.387 985.453 210.105C985.18 209.816 985.043 209.457 985.043 209.027ZM998.285 221.555C998.285 221.047 998.074 220.66 997.652 220.395C997.238 220.129 996.547 219.895 995.578 219.691C994.609 219.488 993.801 219.23 993.152 218.918C991.73 218.23 991.02 217.234 991.02 215.93C991.02 214.836 991.48 213.922 992.402 213.188C993.324 212.453 994.496 212.086 995.918 212.086C997.434 212.086 998.656 212.461 999.586 213.211C1000.52 213.961 1000.99 214.934 1000.99 216.129H998.145C998.145 215.582 997.941 215.129 997.535 214.77C997.129 214.402 996.59 214.219 995.918 214.219C995.293 214.219 994.781 214.363 994.383 214.652C993.992 214.941 993.797 215.328 993.797 215.812C993.797 216.25 993.98 216.59 994.348 216.832C994.715 217.074 995.457 217.32 996.574 217.57C997.691 217.812 998.566 218.105 999.199 218.449C999.84 218.785 1000.31 219.191 1000.62 219.668C1000.93 220.145 1001.09 220.723 1001.09 221.402C1001.09 222.543 1000.61 223.469 999.668 224.18C998.723 224.883 997.484 225.234 995.953 225.234C994.914 225.234 993.988 225.047 993.176 224.672C992.363 224.297 991.73 223.781 991.277 223.125C990.824 222.469 990.598 221.762 990.598 221.004H993.363C993.402 221.676 993.656 222.195 994.125 222.562C994.594 222.922 995.215 223.102 995.988 223.102C996.738 223.102 997.309 222.961 997.699 222.68C998.09 222.391 998.285 222.016 998.285 221.555Z" fill="#646464"/>
<path d="M883.863 255H880.91V237.938H883.863V255ZM889.875 242.32L889.957 243.785C890.895 242.652 892.125 242.086 893.648 242.086C896.289 242.086 897.633 243.598 897.68 246.621V255H894.832V246.785C894.832 245.98 894.656 245.387 894.305 245.004C893.961 244.613 893.395 244.418 892.605 244.418C891.457 244.418 890.602 244.938 890.039 245.977V255H887.191V242.32H889.875ZM901.594 255V244.43H899.66V242.32H901.594V241.16C901.594 239.754 901.984 238.668 902.766 237.902C903.547 237.137 904.641 236.754 906.047 236.754C906.547 236.754 907.078 236.824 907.641 236.965L907.57 239.191C907.258 239.129 906.895 239.098 906.48 239.098C905.121 239.098 904.441 239.797 904.441 241.195V242.32H907.02V244.43H904.441V255H901.594ZM914.402 255.234C912.598 255.234 911.133 254.668 910.008 253.535C908.891 252.395 908.332 250.879 908.332 248.988V248.637C908.332 247.371 908.574 246.242 909.059 245.25C909.551 244.25 910.238 243.473 911.121 242.918C912.004 242.363 912.988 242.086 914.074 242.086C915.801 242.086 917.133 242.637 918.07 243.738C919.016 244.84 919.488 246.398 919.488 248.414V249.562H911.203C911.289 250.609 911.637 251.438 912.246 252.047C912.863 252.656 913.637 252.961 914.566 252.961C915.871 252.961 916.934 252.434 917.754 251.379L919.289 252.844C918.781 253.602 918.102 254.191 917.25 254.613C916.406 255.027 915.457 255.234 914.402 255.234ZM914.062 244.371C913.281 244.371 912.648 244.645 912.164 245.191C911.688 245.738 911.383 246.5 911.25 247.477H916.676V247.266C916.613 246.312 916.359 245.594 915.914 245.109C915.469 244.617 914.852 244.371 914.062 244.371ZM926.918 252.961C927.629 252.961 928.219 252.754 928.688 252.34C929.156 251.926 929.406 251.414 929.438 250.805H932.121C932.09 251.594 931.844 252.332 931.383 253.02C930.922 253.699 930.297 254.238 929.508 254.637C928.719 255.035 927.867 255.234 926.953 255.234C925.18 255.234 923.773 254.66 922.734 253.512C921.695 252.363 921.176 250.777 921.176 248.754V248.461C921.176 246.531 921.691 244.988 922.723 243.832C923.754 242.668 925.16 242.086 926.941 242.086C928.449 242.086 929.676 242.527 930.621 243.41C931.574 244.285 932.074 245.438 932.121 246.867H929.438C929.406 246.141 929.156 245.543 928.688 245.074C928.227 244.605 927.637 244.371 926.918 244.371C925.996 244.371 925.285 244.707 924.785 245.379C924.285 246.043 924.031 247.055 924.023 248.414V248.871C924.023 250.246 924.27 251.273 924.762 251.953C925.262 252.625 925.98 252.961 926.918 252.961ZM937.84 239.238V242.32H940.078V244.43H937.84V251.508C937.84 251.992 937.934 252.344 938.121 252.562C938.316 252.773 938.66 252.879 939.152 252.879C939.48 252.879 939.812 252.84 940.148 252.762V254.965C939.5 255.145 938.875 255.234 938.273 255.234C936.086 255.234 934.992 254.027 934.992 251.613V244.43H932.906V242.32H934.992V239.238H937.84ZM949.84 255C949.715 254.758 949.605 254.363 949.512 253.816C948.605 254.762 947.496 255.234 946.184 255.234C944.91 255.234 943.871 254.871 943.066 254.145C942.262 253.418 941.859 252.52 941.859 251.449C941.859 250.098 942.359 249.062 943.359 248.344C944.367 247.617 945.805 247.254 947.672 247.254H949.418V246.422C949.418 245.766 949.234 245.242 948.867 244.852C948.5 244.453 947.941 244.254 947.191 244.254C946.543 244.254 946.012 244.418 945.598 244.746C945.184 245.066 944.977 245.477 944.977 245.977H942.129C942.129 245.281 942.359 244.633 942.82 244.031C943.281 243.422 943.906 242.945 944.695 242.602C945.492 242.258 946.379 242.086 947.355 242.086C948.84 242.086 950.023 242.461 950.906 243.211C951.789 243.953 952.242 245 952.266 246.352V252.07C952.266 253.211 952.426 254.121 952.746 254.801V255H949.84ZM946.711 252.949C947.273 252.949 947.801 252.812 948.293 252.539C948.793 252.266 949.168 251.898 949.418 251.438V249.047H947.883C946.828 249.047 946.035 249.23 945.504 249.598C944.973 249.965 944.707 250.484 944.707 251.156C944.707 251.703 944.887 252.141 945.246 252.469C945.613 252.789 946.102 252.949 946.711 252.949ZM954.715 248.566C954.715 246.613 955.168 245.047 956.074 243.867C956.98 242.68 958.195 242.086 959.719 242.086C961.062 242.086 962.148 242.555 962.977 243.492V237H965.824V255H963.246L963.105 253.688C962.254 254.719 961.117 255.234 959.695 255.234C958.211 255.234 957.008 254.637 956.086 253.441C955.172 252.246 954.715 250.621 954.715 248.566ZM957.562 248.812C957.562 250.102 957.809 251.109 958.301 251.836C958.801 252.555 959.508 252.914 960.422 252.914C961.586 252.914 962.438 252.395 962.977 251.355V245.941C962.453 244.926 961.609 244.418 960.445 244.418C959.523 244.418 958.812 244.785 958.312 245.52C957.812 246.246 957.562 247.344 957.562 248.812ZM968.262 248.543C968.262 247.301 968.508 246.184 969 245.191C969.492 244.191 970.184 243.426 971.074 242.895C971.965 242.355 972.988 242.086 974.145 242.086C975.855 242.086 977.242 242.637 978.305 243.738C979.375 244.84 979.953 246.301 980.039 248.121L980.051 248.789C980.051 250.039 979.809 251.156 979.324 252.141C978.848 253.125 978.16 253.887 977.262 254.426C976.371 254.965 975.34 255.234 974.168 255.234C972.379 255.234 970.945 254.641 969.867 253.453C968.797 252.258 968.262 250.668 968.262 248.684V248.543ZM971.109 248.789C971.109 250.094 971.379 251.117 971.918 251.859C972.457 252.594 973.207 252.961 974.168 252.961C975.129 252.961 975.875 252.586 976.406 251.836C976.945 251.086 977.215 249.988 977.215 248.543C977.215 247.262 976.938 246.246 976.383 245.496C975.836 244.746 975.09 244.371 974.145 244.371C973.215 244.371 972.477 244.742 971.93 245.484C971.383 246.219 971.109 247.32 971.109 248.789ZM989.566 251.555C989.566 251.047 989.355 250.66 988.934 250.395C988.52 250.129 987.828 249.895 986.859 249.691C985.891 249.488 985.082 249.23 984.434 248.918C983.012 248.23 982.301 247.234 982.301 245.93C982.301 244.836 982.762 243.922 983.684 243.188C984.605 242.453 985.777 242.086 987.199 242.086C988.715 242.086 989.938 242.461 990.867 243.211C991.805 243.961 992.273 244.934 992.273 246.129H989.426C989.426 245.582 989.223 245.129 988.816 244.77C988.41 244.402 987.871 244.219 987.199 244.219C986.574 244.219 986.062 244.363 985.664 244.652C985.273 244.941 985.078 245.328 985.078 245.812C985.078 246.25 985.262 246.59 985.629 246.832C985.996 247.074 986.738 247.32 987.855 247.57C988.973 247.812 989.848 248.105 990.48 248.449C991.121 248.785 991.594 249.191 991.898 249.668C992.211 250.145 992.367 250.723 992.367 251.402C992.367 252.543 991.895 253.469 990.949 254.18C990.004 254.883 988.766 255.234 987.234 255.234C986.195 255.234 985.27 255.047 984.457 254.672C983.645 254.297 983.012 253.781 982.559 253.125C982.105 252.469 981.879 251.762 981.879 251.004H984.645C984.684 251.676 984.938 252.195 985.406 252.562C985.875 252.922 986.496 253.102 987.27 253.102C988.02 253.102 988.59 252.961 988.98 252.68C989.371 252.391 989.566 252.016 989.566 251.555Z" fill="#646464"/>
<path d="M880.734 428V410.938H885.773C887.281 410.938 888.617 411.273 889.781 411.945C890.953 412.617 891.859 413.57 892.5 414.805C893.141 416.039 893.461 417.453 893.461 419.047V419.902C893.461 421.52 893.137 422.941 892.488 424.168C891.848 425.395 890.93 426.34 889.734 427.004C888.547 427.668 887.184 428 885.645 428H880.734ZM883.699 413.328V425.633H885.633C887.188 425.633 888.379 425.148 889.207 424.18C890.043 423.203 890.469 421.805 890.484 419.984V419.035C890.484 417.184 890.082 415.77 889.277 414.793C888.473 413.816 887.305 413.328 885.773 413.328H883.699ZM903.715 428C903.59 427.758 903.48 427.363 903.387 426.816C902.48 427.762 901.371 428.234 900.059 428.234C898.785 428.234 897.746 427.871 896.941 427.145C896.137 426.418 895.734 425.52 895.734 424.449C895.734 423.098 896.234 422.062 897.234 421.344C898.242 420.617 899.68 420.254 901.547 420.254H903.293V419.422C903.293 418.766 903.109 418.242 902.742 417.852C902.375 417.453 901.816 417.254 901.066 417.254C900.418 417.254 899.887 417.418 899.473 417.746C899.059 418.066 898.852 418.477 898.852 418.977H896.004C896.004 418.281 896.234 417.633 896.695 417.031C897.156 416.422 897.781 415.945 898.57 415.602C899.367 415.258 900.254 415.086 901.23 415.086C902.715 415.086 903.898 415.461 904.781 416.211C905.664 416.953 906.117 418 906.141 419.352V425.07C906.141 426.211 906.301 427.121 906.621 427.801V428H903.715ZM900.586 425.949C901.148 425.949 901.676 425.812 902.168 425.539C902.668 425.266 903.043 424.898 903.293 424.438V422.047H901.758C900.703 422.047 899.91 422.23 899.379 422.598C898.848 422.965 898.582 423.484 898.582 424.156C898.582 424.703 898.762 425.141 899.121 425.469C899.488 425.789 899.977 425.949 900.586 425.949ZM908.59 421.566C908.59 419.613 909.043 418.047 909.949 416.867C910.855 415.68 912.07 415.086 913.594 415.086C914.938 415.086 916.023 415.555 916.852 416.492V410H919.699V428H917.121L916.98 426.688C916.129 427.719 914.992 428.234 913.57 428.234C912.086 428.234 910.883 427.637 909.961 426.441C909.047 425.246 908.59 423.621 908.59 421.566ZM911.438 421.812C911.438 423.102 911.684 424.109 912.176 424.836C912.676 425.555 913.383 425.914 914.297 425.914C915.461 425.914 916.312 425.395 916.852 424.355V418.941C916.328 417.926 915.484 417.418 914.32 417.418C913.398 417.418 912.688 417.785 912.188 418.52C911.688 419.246 911.438 420.344 911.438 421.812ZM922.137 421.543C922.137 420.301 922.383 419.184 922.875 418.191C923.367 417.191 924.059 416.426 924.949 415.895C925.84 415.355 926.863 415.086 928.02 415.086C929.73 415.086 931.117 415.637 932.18 416.738C933.25 417.84 933.828 419.301 933.914 421.121L933.926 421.789C933.926 423.039 933.684 424.156 933.199 425.141C932.723 426.125 932.035 426.887 931.137 427.426C930.246 427.965 929.215 428.234 928.043 428.234C926.254 428.234 924.82 427.641 923.742 426.453C922.672 425.258 922.137 423.668 922.137 421.684V421.543ZM924.984 421.789C924.984 423.094 925.254 424.117 925.793 424.859C926.332 425.594 927.082 425.961 928.043 425.961C929.004 425.961 929.75 425.586 930.281 424.836C930.82 424.086 931.09 422.988 931.09 421.543C931.09 420.262 930.812 419.246 930.258 418.496C929.711 417.746 928.965 417.371 928.02 417.371C927.09 417.371 926.352 417.742 925.805 418.484C925.258 419.219 924.984 420.32 924.984 421.789ZM943.441 424.555C943.441 424.047 943.23 423.66 942.809 423.395C942.395 423.129 941.703 422.895 940.734 422.691C939.766 422.488 938.957 422.23 938.309 421.918C936.887 421.23 936.176 420.234 936.176 418.93C936.176 417.836 936.637 416.922 937.559 416.188C938.48 415.453 939.652 415.086 941.074 415.086C942.59 415.086 943.812 415.461 944.742 416.211C945.68 416.961 946.148 417.934 946.148 419.129H943.301C943.301 418.582 943.098 418.129 942.691 417.77C942.285 417.402 941.746 417.219 941.074 417.219C940.449 417.219 939.938 417.363 939.539 417.652C939.148 417.941 938.953 418.328 938.953 418.812C938.953 419.25 939.137 419.59 939.504 419.832C939.871 420.074 940.613 420.32 941.73 420.57C942.848 420.812 943.723 421.105 944.355 421.449C944.996 421.785 945.469 422.191 945.773 422.668C946.086 423.145 946.242 423.723 946.242 424.402C946.242 425.543 945.77 426.469 944.824 427.18C943.879 427.883 942.641 428.234 941.109 428.234C940.07 428.234 939.145 428.047 938.332 427.672C937.52 427.297 936.887 426.781 936.434 426.125C935.98 425.469 935.754 424.762 935.754 424.004H938.52C938.559 424.676 938.812 425.195 939.281 425.562C939.75 425.922 940.371 426.102 941.145 426.102C941.895 426.102 942.465 425.961 942.855 425.68C943.246 425.391 943.441 425.016 943.441 424.555ZM961.348 417.922C960.973 417.859 960.586 417.828 960.188 417.828C958.883 417.828 958.004 418.328 957.551 419.328V428H954.703V415.32H957.422L957.492 416.738C958.18 415.637 959.133 415.086 960.352 415.086C960.758 415.086 961.094 415.141 961.359 415.25L961.348 417.922ZM968.496 428.234C966.691 428.234 965.227 427.668 964.102 426.535C962.984 425.395 962.426 423.879 962.426 421.988V421.637C962.426 420.371 962.668 419.242 963.152 418.25C963.645 417.25 964.332 416.473 965.215 415.918C966.098 415.363 967.082 415.086 968.168 415.086C969.895 415.086 971.227 415.637 972.164 416.738C973.109 417.84 973.582 419.398 973.582 421.414V422.562H965.297C965.383 423.609 965.73 424.438 966.34 425.047C966.957 425.656 967.73 425.961 968.66 425.961C969.965 425.961 971.027 425.434 971.848 424.379L973.383 425.844C972.875 426.602 972.195 427.191 971.344 427.613C970.5 428.027 969.551 428.234 968.496 428.234ZM968.156 417.371C967.375 417.371 966.742 417.645 966.258 418.191C965.781 418.738 965.477 419.5 965.344 420.477H970.77V420.266C970.707 419.312 970.453 418.594 970.008 418.109C969.562 417.617 968.945 417.371 968.156 417.371ZM983.379 428C983.254 427.758 983.145 427.363 983.051 426.816C982.145 427.762 981.035 428.234 979.723 428.234C978.449 428.234 977.41 427.871 976.605 427.145C975.801 426.418 975.398 425.52 975.398 424.449C975.398 423.098 975.898 422.062 976.898 421.344C977.906 420.617 979.344 420.254 981.211 420.254H982.957V419.422C982.957 418.766 982.773 418.242 982.406 417.852C982.039 417.453 981.48 417.254 980.73 417.254C980.082 417.254 979.551 417.418 979.137 417.746C978.723 418.066 978.516 418.477 978.516 418.977H975.668C975.668 418.281 975.898 417.633 976.359 417.031C976.82 416.422 977.445 415.945 978.234 415.602C979.031 415.258 979.918 415.086 980.895 415.086C982.379 415.086 983.562 415.461 984.445 416.211C985.328 416.953 985.781 418 985.805 419.352V425.07C985.805 426.211 985.965 427.121 986.285 427.801V428H983.379ZM980.25 425.949C980.812 425.949 981.34 425.812 981.832 425.539C982.332 425.266 982.707 424.898 982.957 424.438V422.047H981.422C980.367 422.047 979.574 422.23 979.043 422.598C978.512 422.965 978.246 423.484 978.246 424.156C978.246 424.703 978.426 425.141 978.785 425.469C979.152 425.789 979.641 425.949 980.25 425.949ZM991.816 428H988.969V415.32H991.816V428ZM988.793 412.027C988.793 411.59 988.93 411.227 989.203 410.938C989.484 410.648 989.883 410.504 990.398 410.504C990.914 410.504 991.312 410.648 991.594 410.938C991.875 411.227 992.016 411.59 992.016 412.027C992.016 412.457 991.875 412.816 991.594 413.105C991.312 413.387 990.914 413.527 990.398 413.527C989.883 413.527 989.484 413.387 989.203 413.105C988.93 412.816 988.793 412.457 988.793 412.027ZM1002.04 424.555C1002.04 424.047 1001.82 423.66 1001.4 423.395C1000.99 423.129 1000.3 422.895 999.328 422.691C998.359 422.488 997.551 422.23 996.902 421.918C995.48 421.23 994.77 420.234 994.77 418.93C994.77 417.836 995.23 416.922 996.152 416.188C997.074 415.453 998.246 415.086 999.668 415.086C1001.18 415.086 1002.41 415.461 1003.34 416.211C1004.27 416.961 1004.74 417.934 1004.74 419.129H1001.89C1001.89 418.582 1001.69 418.129 1001.29 417.77C1000.88 417.402 1000.34 417.219 999.668 417.219C999.043 417.219 998.531 417.363 998.133 417.652C997.742 417.941 997.547 418.328 997.547 418.812C997.547 419.25 997.73 419.59 998.098 419.832C998.465 420.074 999.207 420.32 1000.32 420.57C1001.44 420.812 1002.32 421.105 1002.95 421.449C1003.59 421.785 1004.06 422.191 1004.37 422.668C1004.68 423.145 1004.84 423.723 1004.84 424.402C1004.84 425.543 1004.36 426.469 1003.42 427.18C1002.47 427.883 1001.23 428.234 999.703 428.234C998.664 428.234 997.738 428.047 996.926 427.672C996.113 427.297 995.48 426.781 995.027 426.125C994.574 425.469 994.348 424.762 994.348 424.004H997.113C997.152 424.676 997.406 425.195 997.875 425.562C998.344 425.922 998.965 426.102 999.738 426.102C1000.49 426.102 1001.06 425.961 1001.45 425.68C1001.84 425.391 1002.04 425.016 1002.04 424.555Z" fill="#646464"/>
<path d="M887.004 278.426H883.699V285H880.734V267.938H886.734C888.703 267.938 890.223 268.379 891.293 269.262C892.363 270.145 892.898 271.422 892.898 273.094C892.898 274.234 892.621 275.191 892.066 275.965C891.52 276.73 890.754 277.32 889.77 277.734L893.602 284.848V285H890.426L887.004 278.426ZM883.699 276.047H886.746C887.746 276.047 888.527 275.797 889.09 275.297C889.652 274.789 889.934 274.098 889.934 273.223C889.934 272.309 889.672 271.602 889.148 271.102C888.633 270.602 887.859 270.344 886.828 270.328H883.699V276.047ZM901.02 285.234C899.215 285.234 897.75 284.668 896.625 283.535C895.508 282.395 894.949 280.879 894.949 278.988V278.637C894.949 277.371 895.191 276.242 895.676 275.25C896.168 274.25 896.855 273.473 897.738 272.918C898.621 272.363 899.605 272.086 900.691 272.086C902.418 272.086 903.75 272.637 904.688 273.738C905.633 274.84 906.105 276.398 906.105 278.414V279.562H897.82C897.906 280.609 898.254 281.438 898.863 282.047C899.48 282.656 900.254 282.961 901.184 282.961C902.488 282.961 903.551 282.434 904.371 281.379L905.906 282.844C905.398 283.602 904.719 284.191 903.867 284.613C903.023 285.027 902.074 285.234 901.02 285.234ZM900.68 274.371C899.898 274.371 899.266 274.645 898.781 275.191C898.305 275.738 898 276.5 897.867 277.477H903.293V277.266C903.23 276.312 902.977 275.594 902.531 275.109C902.086 274.617 901.469 274.371 900.68 274.371ZM911.004 272.32L911.086 273.645C911.977 272.605 913.195 272.086 914.742 272.086C916.438 272.086 917.598 272.734 918.223 274.031C919.145 272.734 920.441 272.086 922.113 272.086C923.512 272.086 924.551 272.473 925.23 273.246C925.918 274.02 926.27 275.16 926.285 276.668V285H923.438V276.75C923.438 275.945 923.262 275.355 922.91 274.98C922.559 274.605 921.977 274.418 921.164 274.418C920.516 274.418 919.984 274.594 919.57 274.945C919.164 275.289 918.879 275.742 918.715 276.305L918.727 285H915.879V276.656C915.84 275.164 915.078 274.418 913.594 274.418C912.453 274.418 911.645 274.883 911.168 275.812V285H908.32V272.32H911.004ZM928.676 278.543C928.676 277.301 928.922 276.184 929.414 275.191C929.906 274.191 930.598 273.426 931.488 272.895C932.379 272.355 933.402 272.086 934.559 272.086C936.27 272.086 937.656 272.637 938.719 273.738C939.789 274.84 940.367 276.301 940.453 278.121L940.465 278.789C940.465 280.039 940.223 281.156 939.738 282.141C939.262 283.125 938.574 283.887 937.676 284.426C936.785 284.965 935.754 285.234 934.582 285.234C932.793 285.234 931.359 284.641 930.281 283.453C929.211 282.258 928.676 280.668 928.676 278.684V278.543ZM931.523 278.789C931.523 280.094 931.793 281.117 932.332 281.859C932.871 282.594 933.621 282.961 934.582 282.961C935.543 282.961 936.289 282.586 936.82 281.836C937.359 281.086 937.629 279.988 937.629 278.543C937.629 277.262 937.352 276.246 936.797 275.496C936.25 274.746 935.504 274.371 934.559 274.371C933.629 274.371 932.891 274.742 932.344 275.484C931.797 276.219 931.523 277.32 931.523 278.789ZM947.156 281.391L949.84 272.32H952.781L948.387 285H945.914L941.484 272.32H944.438L947.156 281.391ZM957.598 285H954.75V272.32H957.598V285ZM954.574 269.027C954.574 268.59 954.711 268.227 954.984 267.938C955.266 267.648 955.664 267.504 956.18 267.504C956.695 267.504 957.094 267.648 957.375 267.938C957.656 268.227 957.797 268.59 957.797 269.027C957.797 269.457 957.656 269.816 957.375 270.105C957.094 270.387 956.695 270.527 956.18 270.527C955.664 270.527 955.266 270.387 954.984 270.105C954.711 269.816 954.574 269.457 954.574 269.027ZM960.176 278.566C960.176 276.613 960.629 275.047 961.535 273.867C962.441 272.68 963.656 272.086 965.18 272.086C966.523 272.086 967.609 272.555 968.438 273.492V267H971.285V285H968.707L968.566 283.688C967.715 284.719 966.578 285.234 965.156 285.234C963.672 285.234 962.469 284.637 961.547 283.441C960.633 282.246 960.176 280.621 960.176 278.566ZM963.023 278.812C963.023 280.102 963.27 281.109 963.762 281.836C964.262 282.555 964.969 282.914 965.883 282.914C967.047 282.914 967.898 282.395 968.438 281.355V275.941C967.914 274.926 967.07 274.418 965.906 274.418C964.984 274.418 964.273 274.785 963.773 275.52C963.273 276.246 963.023 277.344 963.023 278.812ZM973.723 278.543C973.723 277.301 973.969 276.184 974.461 275.191C974.953 274.191 975.645 273.426 976.535 272.895C977.426 272.355 978.449 272.086 979.605 272.086C981.316 272.086 982.703 272.637 983.766 273.738C984.836 274.84 985.414 276.301 985.5 278.121L985.512 278.789C985.512 280.039 985.27 281.156 984.785 282.141C984.309 283.125 983.621 283.887 982.723 284.426C981.832 284.965 980.801 285.234 979.629 285.234C977.84 285.234 976.406 284.641 975.328 283.453C974.258 282.258 973.723 280.668 973.723 278.684V278.543ZM976.57 278.789C976.57 280.094 976.84 281.117 977.379 281.859C977.918 282.594 978.668 282.961 979.629 282.961C980.59 282.961 981.336 282.586 981.867 281.836C982.406 281.086 982.676 279.988 982.676 278.543C982.676 277.262 982.398 276.246 981.844 275.496C981.297 274.746 980.551 274.371 979.605 274.371C978.676 274.371 977.938 274.742 977.391 275.484C976.844 276.219 976.57 277.32 976.57 278.789ZM995.027 281.555C995.027 281.047 994.816 280.66 994.395 280.395C993.98 280.129 993.289 279.895 992.32 279.691C991.352 279.488 990.543 279.23 989.895 278.918C988.473 278.23 987.762 277.234 987.762 275.93C987.762 274.836 988.223 273.922 989.145 273.188C990.066 272.453 991.238 272.086 992.66 272.086C994.176 272.086 995.398 272.461 996.328 273.211C997.266 273.961 997.734 274.934 997.734 276.129H994.887C994.887 275.582 994.684 275.129 994.277 274.77C993.871 274.402 993.332 274.219 992.66 274.219C992.035 274.219 991.523 274.363 991.125 274.652C990.734 274.941 990.539 275.328 990.539 275.812C990.539 276.25 990.723 276.59 991.09 276.832C991.457 277.074 992.199 277.32 993.316 277.57C994.434 277.812 995.309 278.105 995.941 278.449C996.582 278.785 997.055 279.191 997.359 279.668C997.672 280.145 997.828 280.723 997.828 281.402C997.828 282.543 997.355 283.469 996.41 284.18C995.465 284.883 994.227 285.234 992.695 285.234C991.656 285.234 990.73 285.047 989.918 284.672C989.105 284.297 988.473 283.781 988.02 283.125C987.566 282.469 987.34 281.762 987.34 281.004H990.105C990.145 281.676 990.398 282.195 990.867 282.562C991.336 282.922 991.957 283.102 992.73 283.102C993.48 283.102 994.051 282.961 994.441 282.68C994.832 282.391 995.027 282.016 995.027 281.555Z" fill="#646464"/>
<path d="M883.699 451.66V458H880.734V440.938H887.262C889.168 440.938 890.68 441.434 891.797 442.426C892.922 443.418 893.484 444.73 893.484 446.363C893.484 448.035 892.934 449.336 891.832 450.266C890.738 451.195 889.203 451.66 887.227 451.66H883.699ZM883.699 449.281H887.262C888.316 449.281 889.121 449.035 889.676 448.543C890.23 448.043 890.508 447.324 890.508 446.387C890.508 445.465 890.227 444.73 889.664 444.184C889.102 443.629 888.328 443.344 887.344 443.328H883.699V449.281ZM902.449 447.922C902.074 447.859 901.688 447.828 901.289 447.828C899.984 447.828 899.105 448.328 898.652 449.328V458H895.805V445.32H898.523L898.594 446.738C899.281 445.637 900.234 445.086 901.453 445.086C901.859 445.086 902.195 445.141 902.461 445.25L902.449 447.922ZM909.598 458.234C907.793 458.234 906.328 457.668 905.203 456.535C904.086 455.395 903.527 453.879 903.527 451.988V451.637C903.527 450.371 903.77 449.242 904.254 448.25C904.746 447.25 905.434 446.473 906.316 445.918C907.199 445.363 908.184 445.086 909.27 445.086C910.996 445.086 912.328 445.637 913.266 446.738C914.211 447.84 914.684 449.398 914.684 451.414V452.562H906.398C906.484 453.609 906.832 454.438 907.441 455.047C908.059 455.656 908.832 455.961 909.762 455.961C911.066 455.961 912.129 455.434 912.949 454.379L914.484 455.844C913.977 456.602 913.297 457.191 912.445 457.613C911.602 458.027 910.652 458.234 909.598 458.234ZM909.258 447.371C908.477 447.371 907.844 447.645 907.359 448.191C906.883 448.738 906.578 449.5 906.445 450.477H911.871V450.266C911.809 449.312 911.555 448.594 911.109 448.109C910.664 447.617 910.047 447.371 909.258 447.371ZM921.211 454.391L923.895 445.32H926.836L922.441 458H919.969L915.539 445.32H918.492L921.211 454.391ZM931.652 458H928.805V445.32H931.652V458ZM928.629 442.027C928.629 441.59 928.766 441.227 929.039 440.938C929.32 440.648 929.719 440.504 930.234 440.504C930.75 440.504 931.148 440.648 931.43 440.938C931.711 441.227 931.852 441.59 931.852 442.027C931.852 442.457 931.711 442.816 931.43 443.105C931.148 443.387 930.75 443.527 930.234 443.527C929.719 443.527 929.32 443.387 929.039 443.105C928.766 442.816 928.629 442.457 928.629 442.027ZM941.871 454.555C941.871 454.047 941.66 453.66 941.238 453.395C940.824 453.129 940.133 452.895 939.164 452.691C938.195 452.488 937.387 452.23 936.738 451.918C935.316 451.23 934.605 450.234 934.605 448.93C934.605 447.836 935.066 446.922 935.988 446.188C936.91 445.453 938.082 445.086 939.504 445.086C941.02 445.086 942.242 445.461 943.172 446.211C944.109 446.961 944.578 447.934 944.578 449.129H941.73C941.73 448.582 941.527 448.129 941.121 447.77C940.715 447.402 940.176 447.219 939.504 447.219C938.879 447.219 938.367 447.363 937.969 447.652C937.578 447.941 937.383 448.328 937.383 448.812C937.383 449.25 937.566 449.59 937.934 449.832C938.301 450.074 939.043 450.32 940.16 450.57C941.277 450.812 942.152 451.105 942.785 451.449C943.426 451.785 943.898 452.191 944.203 452.668C944.516 453.145 944.672 453.723 944.672 454.402C944.672 455.543 944.199 456.469 943.254 457.18C942.309 457.883 941.07 458.234 939.539 458.234C938.5 458.234 937.574 458.047 936.762 457.672C935.949 457.297 935.316 456.781 934.863 456.125C934.41 455.469 934.184 454.762 934.184 454.004H936.949C936.988 454.676 937.242 455.195 937.711 455.562C938.18 455.922 938.801 456.102 939.574 456.102C940.324 456.102 940.895 455.961 941.285 455.68C941.676 455.391 941.871 455.016 941.871 454.555ZM954.738 458C954.613 457.758 954.504 457.363 954.41 456.816C953.504 457.762 952.395 458.234 951.082 458.234C949.809 458.234 948.77 457.871 947.965 457.145C947.16 456.418 946.758 455.52 946.758 454.449C946.758 453.098 947.258 452.062 948.258 451.344C949.266 450.617 950.703 450.254 952.57 450.254H954.316V449.422C954.316 448.766 954.133 448.242 953.766 447.852C953.398 447.453 952.84 447.254 952.09 447.254C951.441 447.254 950.91 447.418 950.496 447.746C950.082 448.066 949.875 448.477 949.875 448.977H947.027C947.027 448.281 947.258 447.633 947.719 447.031C948.18 446.422 948.805 445.945 949.594 445.602C950.391 445.258 951.277 445.086 952.254 445.086C953.738 445.086 954.922 445.461 955.805 446.211C956.688 446.953 957.141 448 957.164 449.352V455.07C957.164 456.211 957.324 457.121 957.645 457.801V458H954.738ZM951.609 455.949C952.172 455.949 952.699 455.812 953.191 455.539C953.691 455.266 954.066 454.898 954.316 454.438V452.047H952.781C951.727 452.047 950.934 452.23 950.402 452.598C949.871 452.965 949.605 453.484 949.605 454.156C949.605 454.703 949.785 455.141 950.145 455.469C950.512 455.789 951 455.949 951.609 455.949ZM956.648 440.258C956.648 441.117 956.398 441.832 955.898 442.402C955.406 442.973 954.785 443.258 954.035 443.258C953.73 443.258 953.465 443.227 953.238 443.164C953.02 443.094 952.703 442.941 952.289 442.707C951.883 442.473 951.594 442.332 951.422 442.285C951.258 442.238 951.074 442.215 950.871 442.215C950.574 442.215 950.32 442.328 950.109 442.555C949.906 442.773 949.805 443.062 949.805 443.422L948.059 443.328C948.059 442.469 948.305 441.746 948.797 441.16C949.297 440.574 949.918 440.281 950.66 440.281C951.105 440.281 951.641 440.457 952.266 440.809C952.898 441.16 953.418 441.336 953.824 441.336C954.121 441.336 954.375 441.227 954.586 441.008C954.797 440.781 954.902 440.484 954.902 440.117L956.648 440.258ZM959.613 451.543C959.613 450.301 959.859 449.184 960.352 448.191C960.844 447.191 961.535 446.426 962.426 445.895C963.316 445.355 964.34 445.086 965.496 445.086C967.207 445.086 968.594 445.637 969.656 446.738C970.727 447.84 971.305 449.301 971.391 451.121L971.402 451.789C971.402 453.039 971.16 454.156 970.676 455.141C970.199 456.125 969.512 456.887 968.613 457.426C967.723 457.965 966.691 458.234 965.52 458.234C963.73 458.234 962.297 457.641 961.219 456.453C960.148 455.258 959.613 453.668 959.613 451.684V451.543ZM962.461 451.789C962.461 453.094 962.73 454.117 963.27 454.859C963.809 455.594 964.559 455.961 965.52 455.961C966.48 455.961 967.227 455.586 967.758 454.836C968.297 454.086 968.566 452.988 968.566 451.543C968.566 450.262 968.289 449.246 967.734 448.496C967.188 447.746 966.441 447.371 965.496 447.371C964.566 447.371 963.828 447.742 963.281 448.484C962.734 449.219 962.461 450.32 962.461 451.789Z" fill="#646464"/>
<line x1="774" y1="450" x2="869" y2="450" stroke="#9E9D9D" stroke-width="14" stroke-dasharray="20 6"/>
<defs>
<filter id="filter0_d" x="127" y="559" width="27" height="27" filterUnits="userSpaceOnUse" color-interpolation-filters="sRGB">
<feFlood flood-opacity="0" result="BackgroundImageFix"/>
<feColorMatrix in="SourceAlpha" type="matrix" values="0 0 0 0 0 0 0 0 0 0 0 0 0 0 0 0 0 0 127 0" result="hardAlpha"/>
<feOffset dx="-2" dy="2"/>
<feGaussianBlur stdDeviation="2"/>
<feComposite in2="hardAlpha" operator="out"/>
<feColorMatrix type="matrix" values="0 0 0 0 0 0 0 0 0 0 0 0 0 0 0 0 0 0 0.25 0"/>
<feBlend mode="normal" in2="BackgroundImageFix" result="effect1_dropShadow"/>
<feBlend mode="normal" in="SourceGraphic" in2="effect1_dropShadow" result="shape"/>
</filter>
<filter id="filter1_d" x="235" y="408" width="27" height="27" filterUnits="userSpaceOnUse" color-interpolation-filters="sRGB">
<feFlood flood-opacity="0" result="BackgroundImageFix"/>
<feColorMatrix in="SourceAlpha" type="matrix" values="0 0 0 0 0 0 0 0 0 0 0 0 0 0 0 0 0 0 127 0" result="hardAlpha"/>
<feOffset dx="-2" dy="2"/>
<feGaussianBlur stdDeviation="2"/>
<feComposite in2="hardAlpha" operator="out"/>
<feColorMatrix type="matrix" values="0 0 0 0 0 0 0 0 0 0 0 0 0 0 0 0 0 0 0.25 0"/>
<feBlend mode="normal" in2="BackgroundImageFix" result="effect1_dropShadow"/>
<feBlend mode="normal" in="SourceGraphic" in2="effect1_dropShadow" result="shape"/>
</filter>
<filter id="filter2_d" x="235" y="535" width="27" height="27" filterUnits="userSpaceOnUse" color-interpolation-filters="sRGB">
<feFlood flood-opacity="0" result="BackgroundImageFix"/>
<feColorMatrix in="SourceAlpha" type="matrix" values="0 0 0 0 0 0 0 0 0 0 0 0 0 0 0 0 0 0 127 0" result="hardAlpha"/>
<feOffset dx="-2" dy="2"/>
<feGaussianBlur stdDeviation="2"/>
<feComposite in2="hardAlpha" operator="out"/>
<feColorMatrix type="matrix" values="0 0 0 0 0 0 0 0 0 0 0 0 0 0 0 0 0 0 0.25 0"/>
<feBlend mode="normal" in2="BackgroundImageFix" result="effect1_dropShadow"/>
<feBlend mode="normal" in="SourceGraphic" in2="effect1_dropShadow" result="shape"/>
</filter>
<filter id="filter3_d" x="127" y="613" width="27" height="27" filterUnits="userSpaceOnUse" color-interpolation-filters="sRGB">
<feFlood flood-opacity="0" result="BackgroundImageFix"/>
<feColorMatrix in="SourceAlpha" type="matrix" values="0 0 0 0 0 0 0 0 0 0 0 0 0 0 0 0 0 0 127 0" result="hardAlpha"/>
<feOffset dx="-2" dy="2"/>
<feGaussianBlur stdDeviation="2"/>
<feComposite in2="hardAlpha" operator="out"/>
<feColorMatrix type="matrix" values="0 0 0 0 0 0 0 0 0 0 0 0 0 0 0 0 0 0 0.25 0"/>
<feBlend mode="normal" in2="BackgroundImageFix" result="effect1_dropShadow"/>
<feBlend mode="normal" in="SourceGraphic" in2="effect1_dropShadow" result="shape"/>
</filter>
<linearGradient id="paint0_linear" x1="250" y1="167" x2="653" y2="167" gradientUnits="userSpaceOnUse">
<stop stop-color="#3EB7FC" stop-opacity="0.75"/>
<stop offset="1" stop-color="#3EB7FC" stop-opacity="0.05"/>
</linearGradient>
<linearGradient id="paint1_linear" x1="247" y1="412.5" x2="653" y2="408.5" gradientUnits="userSpaceOnUse">
<stop stop-color="#FC773E" stop-opacity="0.75"/>
<stop offset="1" stop-color="#FC773E" stop-opacity="0.05"/>
</linearGradient>
<linearGradient id="paint2_linear" x1="653" y1="546" x2="250" y2="546" gradientUnits="userSpaceOnUse">
<stop stop-color="#1DE119" stop-opacity="0.05"/>
<stop offset="1" stop-color="#1DE119" stop-opacity="0.75"/>
</linearGradient>
</defs>
</svg>
